<svg xmlns="http://www.w3.org/2000/svg" version="1.1" xmlns:xlink="http://www.w3.org/1999/xlink" xmlns:svgjs="http://svgjs.dev/svgjs" viewBox="0 0 600 200">
<g fill="#fff">
    <rect x="0%" y="0" height="60" rx="7"></rect>
      <rect x="11.1111111111%" y="8.1982085339066" width="3.7037%" height="60" rx="7"></rect>
      <rect x="18.5185185185%" y="6.000158356070399" width="3.7037%" height="60" rx="7"></rect>
      <rect x="25.9259259259%" y="16.635477905047328" width="3.7037%" height="60" rx="7"></rect>
      <rect x="33.3333333333%" y="7.387807694409171" width="3.7037%" height="60" rx="7"></rect>
      <rect x="40.7407407407%" y="12.655629344148643" width="3.7037%" height="60" rx="7"></rect>
      <rect x="48.1481481481%" y="4.922787961799665" width="3.7037%" height="60" rx="7"></rect>
      <rect x="55.5555555555%" y="4.028530184593888" width="3.7037%" height="60" rx="7"></rect>
      <rect x="62.9629629629%" y="19.74762059964339" width="3.7037%" height="60" rx="7"></rect>
      <rect x="70.3703703703%" y="14.680718246931677" width="3.7037%" height="60" rx="7"></rect>
      <rect x="77.7777777777%" y="7.0278659155962035" width="3.7037%" height="60" rx="7"></rect>
      <rect x="85.1851851851%" y="7.299654631580461" width="3.7037%" height="60" rx="7"></rect>
      <rect x="92.5925925925%" y="19.894735589258644" width="3.7037%" height="60" rx="7"></rect>
      <rect x="99.5925925925%" y="19.894735589258644" width="3.7037%" height="60" rx="7"></rect>
  </g></svg>